<svg width="36" height="35" viewBox="0 0 36 35" fill="none" xmlns="http://www.w3.org/2000/svg">
<path d="M18.067 9.0791C16.5698 9.081 15.1344 9.67662 14.0757 10.7353C13.017 11.7941 12.4213 13.2294 12.4194 14.7267H15.2906C15.2906 13.1949 16.5367 11.9503 18.067 11.9503C19.5974 11.9503 20.8434 13.1949 20.8434 14.7267C20.8434 15.5852 20.1529 16.2082 19.0978 17.061C18.7531 17.331 18.422 17.618 18.1058 17.9209C16.6731 19.3521 16.6314 20.8724 16.6314 21.0418V21.9994H19.5026L19.5012 21.0906C19.5026 21.0677 19.5485 20.5365 20.1343 19.9522C20.3496 19.7369 20.6209 19.5215 20.9023 19.2947C22.0206 18.3889 23.7132 17.0208 23.7132 14.7267C23.712 13.2295 23.1169 11.7938 22.0583 10.735C20.9997 9.67617 19.5643 9.08062 18.067 9.0791ZM16.6314 23.4349H19.5026V26.3061H16.6314V23.4349Z" fill="#C4522B"/>
<path d="M18.0668 3.33679C10.151 3.33679 3.71094 9.77682 3.71094 17.6926C3.71094 25.6084 10.151 32.0485 18.0668 32.0485C25.9826 32.0485 32.4226 25.6084 32.4226 17.6926C32.4226 9.77682 25.9826 3.33679 18.0668 3.33679ZM18.0668 29.1773C11.7344 29.1773 6.58211 24.025 6.58211 17.6926C6.58211 11.3603 11.7344 6.20796 18.0668 6.20796C24.3991 6.20796 29.5515 11.3603 29.5515 17.6926C29.5515 24.025 24.3991 29.1773 18.0668 29.1773Z" fill="#C4522B"/>
</svg>
