<svg width="35" height="35" viewBox="0 0 35 35" fill="none" xmlns="http://www.w3.org/2000/svg">
<path d="M17.2269 8.61328C15.7297 8.61518 14.2943 9.2108 13.2356 10.2695C12.1769 11.3282 11.5812 12.7636 11.5793 14.2609H14.4505C14.4505 12.7291 15.6966 11.4844 17.2269 11.4844C18.7573 11.4844 20.0034 12.7291 20.0034 14.2609C20.0034 15.1193 19.3128 15.7424 18.2577 16.5951C17.913 16.8652 17.5819 17.1522 17.2657 17.455C15.833 18.8863 15.7914 20.4066 15.7914 20.576V21.5335H18.6625L18.6611 20.6248C18.6625 20.6018 18.7085 20.0707 19.2942 19.4864C19.5095 19.2711 19.7808 19.0557 20.0622 18.8289C21.1805 17.923 22.8731 16.5549 22.8731 14.2609C22.8719 12.7636 22.2768 11.328 21.2182 10.2692C20.1596 9.21035 18.7242 8.6148 17.2269 8.61328ZM15.7914 22.9691H18.6625V25.8403H15.7914V22.9691Z" fill="#C4522B"/>
<path d="M17.2269 2.87109C9.31113 2.87109 2.87109 9.31113 2.87109 17.2269C2.87109 25.1427 9.31113 31.5828 17.2269 31.5828C25.1427 31.5828 31.5828 25.1427 31.5828 17.2269C31.5828 9.31113 25.1427 2.87109 17.2269 2.87109ZM17.2269 28.7116C10.8946 28.7116 5.74226 23.5593 5.74226 17.2269C5.74226 10.8946 10.8946 5.74226 17.2269 5.74226C23.5593 5.74226 28.7116 10.8946 28.7116 17.2269C28.7116 23.5593 23.5593 28.7116 17.2269 28.7116Z" fill="#C4522B"/>
</svg>
